# AST/ASF file generated using VICON BodyLanguage
# -----------------------------------------------
:version 1.10
:name VICON
:units
  mass 1.0
  length 0.45
  angle deg
:documentation
   .ast/.asf automatically generated from VICON data using
   VICON BodyBuilder and BodyLanguage model FoxedUp or BRILLIANT.MOD
:root
   order TX TY TZ RX RY RZ
   axis XYZ
   position 0 0 0  
   orientation 0 0 0 
:bonedata
  begin
     id 1 
     name lhipjoint
     direction 0.602128 -0.715006 0.355257 
     length 2.21237 
     axis 0 0 0  XYZ
  end
  begin
     id 2 
     name lfemur
     direction 0.34202 -0.939693 0  
     length 6.71649  
     axis 0 0 20  XYZ
    dof rx ry rz
    limits (-160.0 20.0)
           (-70.0 70.0)
           (-60.0 70.0)
  end
  begin
     id 3 
     name ltibia
     direction 0.34202 -0.939693 0   
     length 6.97123   
     axis 0 0 20   XYZ
    dof rx
    limits (-10.0 170.0)
  end
  begin
     id 4 
     name lfoot
     direction 0.0655697 -0.180151 0.981451   
     length 1.80924   
     axis -90 7.62852e-016 20   XYZ
    dof rx rz
    limits (-45.0 90.0)
           (-70.0 20.0)
  end
  begin
     id 5 
     name ltoes
     direction 1.53545e-011 -4.21827e-011 1   
     length 0.916331   
     axis -90 7.62852e-016 20   XYZ
    dof rx
    limits (-90.0 20.0)
  end
  begin
     id 6 
     name rhipjoint
     direction -0.625414 -0.698792 0.347201   
     length 2.2637  
     axis 0 0 0  XYZ 
  end
  begin
     id 7 
     name rfemur
     direction -0.34202 -0.939693 0   
     length 7.07595   
     axis 0 0 -20   XYZ
    dof rx ry rz
    limits (-160.0 20.0)
           (-70.0 70.0)
           (-70.0 60.0)
  end
  begin
     id 8 
     name rtibia
     direction -0.34202 -0.939693 0   
     length 7.22924   
     axis 0 0 -20   XYZ
    dof rx
    limits (-10.0 170.0)
 end
 begin
     id 9 
     name rfoot
     direction -0.0766747 -0.210662 0.974547   
     length 1.98482  
     axis -90 -7.62852e-016 -20   XYZ
    dof rx rz
    limits (-45.0 90.0)
           (-20.0 70.0)
  end
  begin
     id 10 
     name rtoes
     direction -1.53532e-011 -4.21867e-011 1   
     length 0.999842   
     axis -90 -7.62852e-016 -20   XYZ
    dof rx
    limits (-90.0 20.0)
  end
  begin
     id 11 
     name lowerback
     direction -0.0224668 0.997354 -0.0691422   
     length 2.09945   
     axis 0 0 0   XYZ
    dof rx ry rz
    limits (-20.0 45.0)
           (-30.0 30.0)
           (-30.0 30.0)
  end
  begin
     id 12 
     name upperback
     direction 0.0134698 0.998451 -0.0539888   
     length 2.09758   
     axis 0 0 0   XYZ
    dof rx ry rz
    limits (-20.0 45.0)
           (-30.0 30.0)
           (-30.0 30.0)
  end
  begin
     id 13 
     name thorax
     direction 0.0241905 0.99948 -0.0213333   
     length 2.10428   
     axis 0 0 0   XYZ
    dof rx ry rz
    limits (-20.0 45.0)
           (-30.0 30.0)
           (-30.0 30.0)
  end
  begin
     id 14 
     name lowerneck
     direction -0.00866847 0.995978 0.0891737   
     length 1.3959   
     axis 0 0 0   XYZ
    dof rx ry rz
    limits (-20.0 45.0)
           (-30.0 30.0)
           (-30.0 30.0)
  end
  begin
     id 15 
     name upperneck
     direction 0.0680679 0.992203 0.104404   
     length 1.39452   
     axis 0 0 0   XYZ
    dof rx ry rz
    limits (-20.0 45.0)
           (-30.0 30.0)
           (-30.0 30.0)
  end
  begin
     id 16
     name head
     direction 0.0242216 0.999358 0.0264054  
     length 1.40433  
     axis 0 0 0   XYZ
    dof rx ry rz
    limits (-20.0 45.0)
           (-30.0 30.0)
           (-30.0 30.0)
  end
  begin
     id 17 
     name lclavicle
     direction 0.929368 0.362991 -0.0671771  
     length 3.04887  
     axis 0 0 0   XYZ
    dof ry rz
    limits (-20.0 10.0)
           (0.0 20.0)
  end
  begin
     id 18 
     name lhumerus
     direction 1 -4.48967e-011 -7.13741e-028   
     length 4.77195   
     axis -180 -30 -90   XYZ
    dof rx ry rz
    limits (-60.0 90.0)
           (-90.0 90.0)
           (-90.0 90.0)
  end
  begin
     id 19
     name lradius
     direction 1 -4.48977e-011 3.60404e-027   
     length 2.98444   
     axis -180 -30 -90   XYZ
    dof rx
    limits (-10.0 170.0)
  end
  begin
     id 20
     name lwrist
     direction 1 -4.48997e-011 7.54877e-027   
     length 1.49222   
     axis -7.18178e-015 90 90   XYZ
    dof ry
    limits (-180.0 0.0)
 end
  begin
     id 21 
     name lhand
     direction 1 -4.489e-011 1.51105e-026   
     length 0.992285   
     axis -9.63605e-015 90 90   XYZ
    dof rx rz
    limits (-90.0 90.0)
           (-45.0 45.0)
  end
  begin
     id 22 
     name lfingers
     direction 1 -4.48998e-011 3.01948e-026   
     length 0.800006   
     axis -1.92718e-014 90 90   XYZ
    dof rx
    limits (0.0 90.0)
  end
  begin
     id 23
     name lthumb
     direction 0.707107 -6.34881e-011 0.707107   
     length 1.14865   
     axis -90 45 -3.53137e-014   XYZ
    dof rx rz
    limits (-45.0 45.0)
           (-45.0 45.0)
  end
  begin
     id 24 
     name rclavicle
     direction -0.945672 0.324529 0.0196374   
     length 3.4236  
     axis 0 0 0   XYZ 
    dof ry rz
    limits (-10.0 20.0)
           (-20.0 0.0)
  end
  begin
     id 25 
     name rhumerus
     direction -1 -4.4896e-011 1.02757e-029  
     length 4.62052   
     axis -180 30 90   XYZ
    dof rx ry rz
    limits (-90.0 60.0)
           (-90.0 90.0)
           (-90.0 90.0)
  end
  begin
     id 26 
     name rradius
     direction -1 -4.48982e-011 3.85962e-027   
     length 2.95332   
     axis -180 30 90   XYZ
    dof rx
    limits (-10.0 170.0)
  end
  begin
     id 27 
     name rwrist
     direction -1 -4.48961e-011 7.55118e-027   
     length 1.47666   
     axis -7.18178e-015 -90 -90   XYZ
    dof ry
    limits (-180.0 0.0)
  end
  begin
     id 28
     name rhand
     direction -1 -4.48984e-011 1.50994e-026   
     length 0.990956   
     axis -9.63605e-015 -90 -90   XYZ
    dof rx rz
    limits (-90.0 90.0)
           (-45.0 45.0)
  end
  begin
     id 29
     name rfingers
     direction -1 -4.4892e-011 3.02158e-026   
     length 0.798934   
     axis -1.92718e-014 -90 -90   XYZ
    dof rx
    limits (0.0 90.0)
  end
  begin
     id 30
     name rthumb
     direction -0.707107 -6.34916e-011 0.707107   
     length 1.14711   
     axis -90 -45 3.53137e-014   XYZ
    dof rx rz
    limits (-45.0 45.0)
           (-45.0 45.0)
  end
:hierarchy
  begin
    root lhipjoint rhipjoint lowerback
    lhipjoint lfemur
    lfemur ltibia
    ltibia lfoot
    lfoot ltoes
    rhipjoint rfemur
    rfemur rtibia
    rtibia rfoot
    rfoot rtoes
    lowerback upperback
    upperback thorax
    thorax lowerneck lclavicle rclavicle
    lowerneck upperneck
    upperneck head
    lclavicle lhumerus
    lhumerus lradius
    lradius lwrist
    lwrist lhand lthumb
    lhand lfingers
    rclavicle rhumerus
    rhumerus rradius
    rradius rwrist
    rwrist rhand rthumb
    rhand rfingers
  end

#!OML:ASF H:\ManfredObstacles\Project 1\Capture day 1\Session 1\Male.ASF
:FULLY-SPECIFIED
:DEGREES
183
root 8.91271 16.3278 11.3342 -171.286 -25.1431 -179.821
lowerback -11.1219 -0.00560569 -2.65027
upperback 2.30171 0.386721 -0.214367
thorax 8.69861 0.0550004 1.33801
lowerneck 0.711551 -0.653081 -4.43716
upperneck 5.07058 -1.25718 6.50644
head 1.5621 -0.665472 2.85226
rclavicle 2.00276e-014 1.59028e-014
rhumerus -37.6042 -19.7645 -75.5789
rradius 30.0801
rwrist 28.1826
rhand 0.918856 -4.75964
rfingers 7.12502
rthumb 26.4702 -32.931
lclavicle 2.00276e-014 1.59028e-014
lhumerus -31.3025 19.3678 77.9221
lradius 19.4399
lwrist -31.8937
lhand -7.40494 7.15506
lfingers 7.12502
lthumb 18.4813 36.2971
rfemur -6.64501 -11.5909 18.6883
rtibia 46.9129
rfoot -8.83205 1.49792
rtoes -2.55994
lfemur -24.2904 6.51531 -24.7596
ltibia 20.8893
lfoot 1.60555 -13.4178
ltoes 11.5892
184
root 8.79745 16.3321 11.189 -171.276 -25.6861 -179.991
lowerback -10.9577 -0.145013 -2.92626
upperback 2.32764 0.232326 -0.192272
thorax 8.63821 -0.0341881 1.48813
lowerneck 0.748015 -0.768447 -4.52215
upperneck 4.8238 -1.39892 6.60543
head 1.48711 -0.735517 2.89864
rclavicle 3.84648e-014 1.98785e-014
rhumerus -37.677 -19.6464 -75.3693
rradius 30.1191
rwrist 28.4804
rhand 0.930702 -4.48827
rfingers 7.12502
rthumb 26.4815 -32.6579
lclavicle 3.84648e-014 1.98785e-014
lhumerus -30.9054 18.2397 78.7155
lradius 20.0749
lwrist -30.452
lhand -7.80369 7.28176
lfingers 7.12502
lthumb 18.0977 36.4598
rfemur -8.71673 -12.047 18.1758
rtibia 51.0713
rfoot -6.14366 1.48592
rtoes -0.122573
lfemur -23.4736 6.72363 -25.1261
ltibia 20.7314
lfoot 1.56675 -14.2495
ltoes 13.3379
185
root 8.68701 16.3368 11.0481 -171.19 -26.1656 -180.278
lowerback -10.7882 -0.217016 -3.23204
upperback 2.34895 0.179426 -0.294306
thorax 8.56636 -0.0725715 1.54156
lowerneck 0.76313 -0.890265 -4.44243
upperneck 4.80014 -1.57473 6.7876
head 1.48938 -0.821626 2.94363
rclavicle 2.73826e-014 3.97569e-015
rhumerus -37.8399 -20.0529 -75.1004
rradius 30.1106
rwrist 28.9954
rhand 0.921181 -4.50312
rfingers 7.12502
rthumb 26.4724 -32.6741
lclavicle 2.73826e-014 3.97569e-015
lhumerus -30.4891 17.3965 79.1573
lradius 20.5694
lwrist -29.6176
lhand -8.03335 7.26143
lfingers 7.12502
lthumb 17.8767 36.4598
rfemur -10.986 -12.293 17.6269
rtibia 55.102
rfoot -4.21209 1.3394
rtoes 2.2499
lfemur -22.5581 6.82023 -25.5335
ltibia 20.4004
lfoot 1.5336 -14.9378
ltoes 15.0015
186
root 8.60207 16.3376 10.8902 -171.897 -26.3166 -179.653
lowerback -10.3448 -0.106785 -3.02078
upperback 2.49308 0.274858 -0.165302
thorax 8.45993 -0.0183688 1.57507
lowerneck 1.06586 -0.995524 -4.06598
upperneck 4.45539 -1.70579 6.72535
head 1.32675 -0.888608 2.84856
rclavicle -3.4837e-014 -1.47101e-014
rhumerus -37.9746 -20.7277 -74.8281
rradius 29.9352
rwrist 29.4264
rhand 0.593214 -4.66061
rfingers 7.12502
rthumb 26.1584 -32.8785
lclavicle -3.4837e-014 -1.47101e-014
lhumerus -29.9715 17.0813 79.3017
lradius 20.77
lwrist -29.3779
lhand -8.14164 7.35352
lfingers 7.12502
lthumb 17.7725 36.5614
rfemur -12.8728 -11.6527 18.2821
rtibia 58.5903
rfoot -4.48028 0.0496335
rtoes 6.40835
lfemur -21.2551 7.08167 -24.787
ltibia 20.1191
lfoot 1.24894 -15.4338
ltoes 15.5315
187
root 8.50665 16.3373 10.7513 -171.469 -26.6066 -181.012
lowerback -10.1314 -0.341108 -4.53595
upperback 2.60403 0.165314 -0.360325
thorax 8.46718 -0.14897 2.2009
lowerneck 1.1383 -1.003 -4.36078
upperneck 4.3318 -1.71094 6.82934
head 1.28017 -0.89499 2.93907
rclavicle 8.79622e-015 -1.5704e-014
rhumerus -37.8897 -21.2646 -74.3716
rradius 29.6422
rwrist 29.7989
rhand 0.102849 -4.7798
rfingers 7.12502
rthumb 25.6889 -33.0664
lclavicle 8.79622e-015 -1.5704e-014
lhumerus -29.3979 16.9711 79.721
lradius 20.8653
lwrist -28.9505
lhand -8.49073 7.43319
lfingers 7.12502
lthumb 17.4366 36.6711
rfemur -14.9551 -11.7657 16.8366
rtibia 61.6811
rfoot -6.17494 -0.308091
rtoes 4.78628
lfemur -20.2047 7.23647 -26.1754
ltibia 19.8749
lfoot 1.06004 -16.2579
ltoes 16.0853
188
root 8.41411 16.3373 10.6167 -171.778 -26.7739 -181.12
lowerback -9.76754 -0.411666 -4.86956
upperback 2.80377 0.0895872 -0.249188
thorax 8.48017 -0.210646 2.4929
lowerneck 1.19339 -1.01822 -4.60225
upperneck 4.33595 -1.73359 6.87634
head 1.2772 -0.909883 3.00079
rclavicle 2.48481e-015 -1.92821e-014
rhumerus -37.6863 -21.8889 -73.9174
rradius 29.3116
rwrist 30.1394
rhand -0.319379 -4.82094
rfingers 7.12502
rthumb 25.2844 -33.1653
lclavicle 2.48481e-015 -1.92821e-014
lhumerus -28.7514 16.7535 80.198
lradius 20.935
lwrist -28.433
lhand -8.69966 7.37913
lfingers 7.12502
lthumb 17.2355 36.6348
rfemur -16.9255 -11.1695 16.7225
rtibia 63.956
rfoot -8.06734 -0.745245
rtoes 4.71864
lfemur -19.0333 7.06945 -26.1954
ltibia 19.7415
lfoot 0.488938 -16.4082
ltoes 16.3356
189
root 8.31793 16.3409 10.4859 -172.076 -27.1536 -180.979
lowerback -9.50855 -0.399056 -4.61994
upperback 2.94607 0.0655375 -0.305236
thorax 8.48403 -0.210976 2.28761
lowerneck 1.28818 -1.11957 -4.45671
upperneck 4.43346 -1.88269 6.85636
head 1.29888 -0.985647 2.96578
rclavicle -3.24516e-014 1.94809e-014
rhumerus -37.659 -22.6439 -73.7352
rradius 29.0621
rwrist 30.2899
rhand -0.717658 -4.83738
rfingers 7.12502
rthumb 24.9028 -33.2351
lclavicle -3.24516e-014 1.94809e-014
lhumerus -28.0217 16.3094 80.417
lradius 20.906
lwrist -28.2703
lhand -8.72358 7.46653
lfingers 7.12502
lthumb 17.2125 36.7242
rfemur -18.9012 -10.5937 16.8872
rtibia 65.595
rfoot -9.92607 -0.832772
rtoes 5.41184
lfemur -17.9604 6.66736 -25.9971
ltibia 19.4974
lfoot -0.00368916 -16.4285
ltoes 16.291
190
root 8.22418 16.3432 10.359 -172.169 -27.6341 -180.881
lowerback -9.29668 -0.473606 -4.36379
upperback 2.95175 -0.0740442 -0.370069
thorax 8.3748 -0.261473 2.05115
lowerneck 1.36733 -1.15272 -4.24095
upperneck 4.62389 -1.94071 6.71874
head 1.34429 -1.01564 2.87867
rclavicle 6.37105e-014 1.43125e-014
rhumerus -37.6722 -22.9692 -73.6811
rradius 28.8154
rwrist 30.3924
rhand -1.0386 -4.61935
rfingers 7.12502
rthumb 24.5952 -33.0593
lclavicle 6.37105e-014 1.43125e-014
lhumerus -27.4342 16.2446 80.4616
lradius 20.823
lwrist -28.5921
lhand -8.74791 7.43555
lfingers 7.12502
lthumb 17.1891 36.6953
rfemur -20.9753 -9.95559 17.0689
rtibia 66.5077
rfoot -11.5569 -0.655789
rtoes 6.0182
lfemur -17.3463 6.27469 -25.8752
ltibia 19.6543
lfoot -0.595169 -16.6381
ltoes 16.0734
191
root 8.13321 16.3384 10.2233 -172.211 -28.4272 -180.878
lowerback -9.15335 -0.75514 -4.33375
upperback 2.97179 -0.463456 -0.352927
thorax 8.33998 -0.449483 1.98895
lowerneck 1.46336 -1.13037 -4.19439
upperneck 4.68301 -1.91571 6.6356
head 1.34276 -1.00566 2.84242
rclavicle 3.19049e-014 3.22031e-014
rhumerus -37.6183 -22.9434 -73.6907
rradius 28.6075
rwrist 30.4826
rhand -1.10975 -4.37167
rfingers 7.12502
rthumb 24.527 -32.8209
lclavicle 3.19049e-014 3.22031e-014
lhumerus -27.0048 16.4487 80.4572
lradius 20.8506
lwrist -29.0295
lhand -8.65475 7.26076
lfingers 7.12502
lthumb 17.2788 36.5126
rfemur -22.8716 -9.61507 17.1674
rtibia 66.8072
rfoot -12.8844 -0.291122
rtoes 5.99833
lfemur -16.844 5.84555 -25.8179
ltibia 20.0726
lfoot -1.11936 -17.1463
ltoes 16.2589
192
root 8.04694 16.3247 10.0887 -172.424 -29.2591 -180.646
lowerback -8.98574 -1.01128 -4.20202
upperback 3.06403 -0.838628 -0.221742
thorax 8.36767 -0.630629 1.99363
lowerneck 1.34927 -1.11361 -4.32298
upperneck 4.95061 -1.91669 6.76954
head 1.45323 -1.0063 2.91312
rclavicle 3.26007e-014 -9.14409e-015
rhumerus -37.6187 -22.6471 -73.7838
rradius 28.7438
rwrist 30.288
rhand -0.701761 -4.41735
rfingers 7.12502
rthumb 24.918 -32.813
lclavicle 3.26007e-014 -9.14409e-015
lhumerus -26.5764 16.3646 80.6915
lradius 21.0327
lwrist -29.2341
lhand -8.62809 7.17162
lfingers 7.12502
lthumb 17.3044 36.4212
rfemur -24.6214 -9.15805 17.5097
rtibia 66.5349
rfoot -14.3441 -0.102197
rtoes 5.66468
lfemur -16.3978 5.32063 -25.5018
ltibia 20.707
lfoot -1.73893 -17.6187
ltoes 16.3937
193
root 7.96525 16.3028 9.95555 -172.543 -30.1162 -180.44
lowerback -8.85594 -1.27949 -4.25563
upperback 3.13438 -1.21393 0.0259471
thorax 8.40196 -0.824659 2.22676
lowerneck 1.37216 -1.16251 -4.38925
upperneck 4.86159 -1.96436 6.60907
head 1.42178 -1.031 2.87011
rclavicle 4.51241e-014 -3.10104e-014
rhumerus -37.6514 -21.9705 -73.8231
rradius 29.1088
rwrist 29.8793
rhand -0.282062 -4.41285
rfingers 7.12502
rthumb 25.3202 -32.7521
lclavicle 4.51241e-014 -3.10104e-014
lhumerus -26.1377 15.856 81.2907
lradius 21.2389
lwrist -28.9451
lhand -8.74871 7.23226
lfingers 7.12502
lthumb 17.1883 36.492
rfemur -26.3329 -8.6273 17.8738
rtibia 65.7185
rfoot -15.6958 -0.264662
rtoes 4.85344
lfemur -16.2217 4.55847 -25.1898
ltibia 21.6344
lfoot -2.5777 -17.9262
ltoes 16.5772
194
root 7.88349 16.2808 9.81783 -172.632 -30.9937 -180.252
lowerback -8.69837 -1.46984 -4.1114
upperback 3.12562 -1.49754 0.0763847
thorax 8.31834 -0.954794 2.15604
lowerneck 1.46792 -1.24349 -4.21301
upperneck 4.78458 -2.07365 6.6095
head 1.38401 -1.08519 2.83608
rclavicle 7.60351e-015 -2.04748e-014
rhumerus -38.0186 -21.5135 -73.9491
rradius 29.5311
rwrist 29.5022
rhand -0.0692985 -4.29798
rfingers 7.12502
rthumb 25.524 -32.6083
lclavicle 7.60351e-015 -2.04748e-014
lhumerus -25.8041 14.4764 81.7962
lradius 21.5064
lwrist -28.0688
lhand -8.83282 7.44647
lfingers 7.12502
lthumb 17.1074 36.7133
rfemur -27.9536 -8.1192 18.1798
rtibia 64.5335
rfoot -17.0935 -0.543541
rtoes 5.58623
lfemur -15.9682 3.76914 -24.8965
ltibia 22.3765
lfoot -3.33747 -18.124
ltoes 16.6981
